<svg xmlns="http://www.w3.org/2000/svg" xmlns:xlink="http://www.w3.org/1999/xlink" version="1.1" width="256" height="256" viewBox="0 0 256 256" xml:space="preserve">

<defs>
</defs>
<g style="stroke: none; stroke-width: 0; stroke-dasharray: none; stroke-linecap: butt; stroke-linejoin: miter; stroke-miterlimit: 10; fill: none; fill-rule: nonzero; opacity: 1;" transform="translate(1.4065934065934016 1.4065934065934016) scale(2.81 2.81)" >
	<path d="M 70.587 70.674 l -33.059 0 h -1.336 c -1.52 0 -2.732 -1.271 -2.665 -2.789 c 0.296 -6.729 2.144 -8.9 5.485 -12.012 h 14.212 c -0.089 3.094 0.023 5.359 0.515 6.962 c 0.508 1.656 2.075 2.759 3.807 2.759 h 6.024 c 1.891 0 3.424 -1.533 3.424 -3.424 V 40.615 c 0 -1.822 1.477 -3.3 3.3 -3.3 h 4.962 c 1.822 0 3.3 1.477 3.3 3.3 v 0 c 0 1.822 -1.477 3.3 -3.3 3.3 h -2.225 c -1.009 0 -1.708 1.02 -1.332 1.957 c 1.558 3.878 7.108 6.452 7.108 14.44" style="stroke: none; stroke-width: 1; stroke-dasharray: none; stroke-linecap: butt; stroke-linejoin: miter; stroke-miterlimit: 10; fill: rgb(255,194,105); fill-rule: nonzero; opacity: 1;" transform=" matrix(1 0 0 1 0 0) " stroke-linecap="round" />
	<path d="M 55.054 21.782 L 55.054 21.782 c 1.322 0.37 2.263 1.443 2.523 2.706 c 0.239 1.164 0.779 2.244 1.696 2.999 l 11.929 9.828 l -3.821 1.753 l -8.266 -4.485 c -0.867 -0.47 -1.943 0.021 -2.155 0.984 l -1.538 6.968 l -8.301 0.523 l 0.315 -1.666 l 3.217 -17.044 C 51.134 22.404 53.126 21.243 55.054 21.782" style="stroke: none; stroke-width: 1; stroke-dasharray: none; stroke-linecap: butt; stroke-linejoin: miter; stroke-miterlimit: 10; fill: rgb(215,204,221); fill-rule: nonzero; opacity: 1;" transform=" matrix(1 0 0 1 0 0) " stroke-linecap="round" />
	<path d="M 87.028 66.682 c 1.521 1.413 2.472 3.431 2.472 5.67 c 0 4.274 -3.465 7.739 -7.739 7.739 c -3.969 0 -7.24 -2.987 -7.687 -6.836" style="stroke: none; stroke-width: 1; stroke-dasharray: none; stroke-linecap: butt; stroke-linejoin: miter; stroke-miterlimit: 10; fill: rgb(84,68,89); fill-rule: nonzero; opacity: 1;" transform=" matrix(1 0 0 1 0 0) " stroke-linecap="round" />
	<path d="M 31.502 48.95 h 20.03 c 0.935 0 1.694 0.758 1.694 1.694 v 5.228 H 34.594 c -2.644 0 -4.787 -2.143 -4.787 -4.787 v -0.442 C 29.808 49.709 30.566 48.95 31.502 48.95 z" style="stroke: none; stroke-width: 1; stroke-dasharray: none; stroke-linecap: butt; stroke-linejoin: miter; stroke-miterlimit: 10; fill: rgb(215,204,221); fill-rule: nonzero; opacity: 1;" transform=" matrix(1 0 0 1 0 0) " stroke-linecap="round" />
	<path d="M 40.831 48.95 H 25.675 c -1.468 0 -2.657 -1.19 -2.657 -2.657 v -14.2 c 0 -1.468 1.19 -2.657 2.657 -2.657 h 15.156 c 1.468 0 2.657 1.19 2.657 2.657 v 14.2 C 43.488 47.761 42.299 48.95 40.831 48.95 z" style="stroke: none; stroke-width: 1; stroke-dasharray: none; stroke-linecap: butt; stroke-linejoin: miter; stroke-miterlimit: 10; fill: rgb(247,102,114); fill-rule: nonzero; opacity: 1;" transform=" matrix(1 0 0 1 0 0) " stroke-linecap="round" />
	<path d="M 53.226 56.372 H 34.594 c -2.915 0 -5.287 -2.371 -5.287 -5.286 v -0.442 c 0 -1.209 0.984 -2.193 2.194 -2.193 h 20.03 c 1.21 0 2.194 0.984 2.194 2.193 v 5.229 C 53.726 56.148 53.502 56.372 53.226 56.372 z M 31.501 49.45 c -0.658 0 -1.194 0.535 -1.194 1.193 v 0.442 c 0 2.363 1.923 4.286 4.287 4.286 h 18.131 v -4.729 c 0 -0.658 -0.536 -1.193 -1.194 -1.193 H 31.501 z" style="stroke: none; stroke-width: 1; stroke-dasharray: none; stroke-linecap: butt; stroke-linejoin: miter; stroke-miterlimit: 10; fill: rgb(0,0,0); fill-rule: nonzero; opacity: 1;" transform=" matrix(1 0 0 1 0 0) " stroke-linecap="round" />
	<path d="M 40.831 49.45 H 25.675 c -1.741 0 -3.157 -1.416 -3.157 -3.157 v -14.2 c 0 -1.741 1.417 -3.157 3.157 -3.157 h 15.156 c 1.741 0 3.157 1.417 3.157 3.157 v 14.2 C 43.988 48.034 42.572 49.45 40.831 49.45 z M 25.675 29.936 c -1.189 0 -2.157 0.968 -2.157 2.157 v 14.2 c 0 1.189 0.968 2.157 2.157 2.157 h 15.156 c 1.189 0 2.157 -0.968 2.157 -2.157 v -14.2 c 0 -1.189 -0.968 -2.157 -2.157 -2.157 H 25.675 z" style="stroke: none; stroke-width: 1; stroke-dasharray: none; stroke-linecap: butt; stroke-linejoin: miter; stroke-miterlimit: 10; fill: rgb(0,0,0); fill-rule: nonzero; opacity: 1;" transform=" matrix(1 0 0 1 0 0) " stroke-linecap="round" />
	<path d="M 55.422 42.535 c -3.056 -0.174 -5.864 -0.478 -7.987 -1.143 l -0.315 1.666 c -0.578 3.061 1.77 5.892 4.884 5.892 h 3.142 c 1.123 0 2.062 0.853 2.169 1.97 l 0.231 14.672 h 7.844 v -0.527 c -0.458 -1.606 -1.671 -2.562 -3.458 -3.023 l 0.171 -16.229 c 0.017 -1.63 -1.262 -2.979 -2.891 -3.049 L 55.422 42.535" style="stroke: none; stroke-width: 1; stroke-dasharray: none; stroke-linecap: butt; stroke-linejoin: miter; stroke-miterlimit: 10; fill: rgb(247,102,114); fill-rule: nonzero; opacity: 1;" transform=" matrix(1 0 0 1 0 0) " stroke-linecap="round" />
	<path d="M 65.392 65.565 c -0.218 0 -0.418 -0.144 -0.48 -0.363 c -0.389 -1.362 -1.403 -2.238 -3.103 -2.676 c -0.223 -0.058 -0.377 -0.26 -0.375 -0.489 l 0.171 -16.229 c 0.015 -1.369 -1.045 -2.486 -2.412 -2.543 l -3.801 -0.23 c -0.146 -0.009 -0.28 -0.081 -0.369 -0.198 c -0.088 -0.117 -0.12 -0.266 -0.089 -0.409 l 1.538 -6.968 c 0.136 -0.614 0.542 -1.116 1.113 -1.376 s 1.215 -0.239 1.769 0.062 l 8.266 4.485 c 0.243 0.132 0.333 0.435 0.201 0.678 c -0.132 0.243 -0.438 0.332 -0.678 0.201 l -8.266 -4.485 c -0.274 -0.148 -0.594 -0.16 -0.877 -0.031 c -0.283 0.129 -0.484 0.378 -0.552 0.683 l -1.412 6.396 l 3.208 0.195 c 1.901 0.08 3.381 1.641 3.36 3.553 l -0.167 15.847 c 1.823 0.565 2.979 1.662 3.435 3.264 c 0.076 0.266 -0.078 0.542 -0.344 0.617 C 65.482 65.56 65.437 65.565 65.392 65.565 z" style="stroke: none; stroke-width: 1; stroke-dasharray: none; stroke-linecap: butt; stroke-linejoin: miter; stroke-miterlimit: 10; fill: rgb(0,0,0); fill-rule: nonzero; opacity: 1;" transform=" matrix(1 0 0 1 0 0) " stroke-linecap="round" />
	<path d="M 57.548 66.093 c -0.272 0 -0.496 -0.219 -0.5 -0.492 l -0.231 -14.672 c -0.081 -0.826 -0.8 -1.479 -1.669 -1.479 h -3.143 c -1.634 0 -3.169 -0.722 -4.212 -1.979 c -1.042 -1.258 -1.467 -2.9 -1.163 -4.506 l 3.531 -18.71 c 0.271 -1.1 0.943 -1.997 1.897 -2.553 c 0.954 -0.555 2.067 -0.699 3.131 -0.401 c 1.468 0.41 2.57 1.593 2.878 3.087 c 0.235 1.148 0.763 2.087 1.524 2.714 l 11.929 9.828 c 0.213 0.175 0.243 0.491 0.067 0.704 c -0.176 0.214 -0.49 0.242 -0.704 0.068 l -11.929 -9.828 c -0.939 -0.774 -1.585 -1.91 -1.868 -3.285 c -0.231 -1.125 -1.062 -2.016 -2.167 -2.325 c -0.802 -0.223 -1.639 -0.116 -2.357 0.302 c -0.719 0.419 -1.225 1.095 -1.425 1.902 L 47.612 43.15 c -0.248 1.312 0.099 2.654 0.951 3.682 c 0.852 1.028 2.106 1.618 3.441 1.618 h 3.143 c 1.388 0 2.534 1.042 2.667 2.423 l 0.233 14.712 c 0.004 0.276 -0.216 0.503 -0.492 0.508 C 57.553 66.093 57.551 66.093 57.548 66.093 z" style="stroke: none; stroke-width: 1; stroke-dasharray: none; stroke-linecap: butt; stroke-linejoin: miter; stroke-miterlimit: 10; fill: rgb(0,0,0); fill-rule: nonzero; opacity: 1;" transform=" matrix(1 0 0 1 0 0) " stroke-linecap="round" />
	<path d="M 60.607 22.211 c -0.276 0 -0.5 -0.224 -0.5 -0.5 s 0.224 -0.5 0.5 -0.5 c 2.465 0 4.471 -2.005 4.471 -4.471 c 0 -0.276 0.224 -0.5 0.5 -0.5 s 0.5 0.224 0.5 0.5 C 66.078 19.757 63.624 22.211 60.607 22.211 z" style="stroke: none; stroke-width: 1; stroke-dasharray: none; stroke-linecap: butt; stroke-linejoin: miter; stroke-miterlimit: 10; fill: rgb(0,0,0); fill-rule: nonzero; opacity: 1;" transform=" matrix(1 0 0 1 0 0) " stroke-linecap="round" />
	<path d="M 52.495 70.673 c 0.129 0.558 0.197 1.139 0.197 1.736 c 0 4.243 -3.44 7.683 -7.683 7.683 s -7.683 -3.44 -7.683 -7.683 c 0 -0.597 0.068 -1.178 0.197 -1.736" style="stroke: none; stroke-width: 1; stroke-dasharray: none; stroke-linecap: butt; stroke-linejoin: miter; stroke-miterlimit: 10; fill: rgb(84,68,89); fill-rule: nonzero; opacity: 1;" transform=" matrix(1 0 0 1 0 0) " stroke-linecap="round" />
	<path d="M 45.009 80.592 c -4.512 0 -8.183 -3.671 -8.183 -8.183 c 0 -0.624 0.071 -1.246 0.21 -1.849 c 0.063 -0.27 0.328 -0.438 0.6 -0.375 c 0.269 0.063 0.437 0.331 0.375 0.6 c -0.123 0.529 -0.185 1.076 -0.185 1.624 c 0 3.961 3.222 7.183 7.183 7.183 s 7.183 -3.222 7.183 -7.183 c 0 -0.548 -0.063 -1.095 -0.185 -1.624 c -0.063 -0.269 0.105 -0.537 0.375 -0.6 c 0.266 -0.063 0.537 0.105 0.6 0.375 c 0.14 0.603 0.21 1.225 0.21 1.849 C 53.192 76.921 49.521 80.592 45.009 80.592 z" style="stroke: none; stroke-width: 1; stroke-dasharray: none; stroke-linecap: butt; stroke-linejoin: miter; stroke-miterlimit: 10; fill: rgb(0,0,0); fill-rule: nonzero; opacity: 1;" transform=" matrix(1 0 0 1 0 0) " stroke-linecap="round" />
	<path d="M 81.962 76.859 c -2.299 0 -4.169 -1.87 -4.169 -4.168 c 0 -0.738 0.195 -1.464 0.566 -2.1 l 0.863 0.504 c -0.281 0.482 -0.43 1.034 -0.43 1.596 c 0 1.747 1.422 3.168 3.169 3.168 s 3.168 -1.421 3.168 -3.168 c 0 -1.616 -1.209 -2.97 -2.813 -3.148 l 0.111 -0.994 c 2.11 0.235 3.702 2.016 3.702 4.143 C 86.13 74.989 84.26 76.859 81.962 76.859 z" style="stroke: none; stroke-width: 1; stroke-dasharray: none; stroke-linecap: butt; stroke-linejoin: miter; stroke-miterlimit: 10; fill: rgb(0,0,0); fill-rule: nonzero; opacity: 1;" transform=" matrix(1 0 0 1 0 0) " stroke-linecap="round" />
	<path d="M 81.761 80.592 c -4.184 0 -7.702 -3.129 -8.185 -7.278 c -0.031 -0.274 0.165 -0.522 0.439 -0.555 c 0.27 -0.029 0.522 0.164 0.555 0.439 c 0.423 3.645 3.515 6.394 7.19 6.394 c 3.992 0 7.239 -3.247 7.239 -7.239 c 0 -2.005 -0.843 -3.938 -2.313 -5.305 c -0.202 -0.188 -0.213 -0.505 -0.025 -0.707 c 0.188 -0.202 0.505 -0.214 0.707 -0.025 C 89.041 67.87 90 70.071 90 72.353 C 90 76.896 86.304 80.592 81.761 80.592 z" style="stroke: none; stroke-width: 1; stroke-dasharray: none; stroke-linecap: butt; stroke-linejoin: miter; stroke-miterlimit: 10; fill: rgb(0,0,0); fill-rule: nonzero; opacity: 1;" transform=" matrix(1 0 0 1 0 0) " stroke-linecap="round" />
	<path d="M 89.211 65.575 c -2.463 -4.854 -8.394 -6.792 -13.248 -4.329 c -4.854 2.463 -6.792 8.394 -4.329 13.248 L 89.211 65.575 z" style="stroke: none; stroke-width: 1; stroke-dasharray: none; stroke-linecap: butt; stroke-linejoin: miter; stroke-miterlimit: 10; fill: rgb(215,204,221); fill-rule: nonzero; opacity: 1;" transform=" matrix(1 0 0 1 0 0) " stroke-linecap="round" />
	<path d="M 60.607 23.573 c -3.773 0 -6.832 -3.059 -6.832 -6.832 s 3.059 -6.832 6.832 -6.832 c 3.773 0 6.832 3.059 6.832 6.832 h -6.832 V 23.573 z" style="stroke: none; stroke-width: 1; stroke-dasharray: none; stroke-linecap: butt; stroke-linejoin: miter; stroke-miterlimit: 10; fill: rgb(247,102,114); fill-rule: nonzero; opacity: 1;" transform=" matrix(1 0 0 1 0 0) " stroke-linecap="round" />
	<path d="M 60.607 24.073 c -4.043 0 -7.332 -3.289 -7.332 -7.332 s 3.289 -7.333 7.332 -7.333 s 7.332 3.29 7.332 7.333 c 0 0.276 -0.224 0.5 -0.5 0.5 h -6.332 v 6.332 C 61.107 23.849 60.884 24.073 60.607 24.073 z M 60.607 10.408 c -3.491 0 -6.332 2.841 -6.332 6.333 c 0 3.323 2.573 6.057 5.832 6.313 v -6.313 c 0 -0.276 0.224 -0.5 0.5 -0.5 h 6.313 C 66.664 12.982 63.931 10.408 60.607 10.408 z" style="stroke: none; stroke-width: 1; stroke-dasharray: none; stroke-linecap: butt; stroke-linejoin: miter; stroke-miterlimit: 10; fill: rgb(0,0,0); fill-rule: nonzero; opacity: 1;" transform=" matrix(1 0 0 1 0 0) " stroke-linecap="round" />
	<path d="M 53.506 43.08 c -2.119 0 -3.353 -0.252 -6.229 -1.214 c -0.262 -0.087 -0.403 -0.371 -0.316 -0.633 c 0.089 -0.261 0.373 -0.401 0.633 -0.315 c 3.51 1.172 4.396 1.243 7.81 1.118 c 0.007 0 0.013 0 0.019 0 c 0.268 0 0.489 0.212 0.5 0.481 c 0.01 0.276 -0.206 0.508 -0.481 0.518 C 54.7 43.062 54.071 43.08 53.506 43.08 z" style="stroke: none; stroke-width: 1; stroke-dasharray: none; stroke-linecap: butt; stroke-linejoin: miter; stroke-miterlimit: 10; fill: rgb(0,0,0); fill-rule: nonzero; opacity: 1;" transform=" matrix(1 0 0 1 0 0) " stroke-linecap="round" />
	<path d="M 71.635 74.995 c -0.053 0 -0.104 -0.008 -0.155 -0.024 c -0.126 -0.041 -0.23 -0.131 -0.291 -0.249 c -1.251 -2.467 -1.468 -5.273 -0.608 -7.902 s 2.69 -4.767 5.157 -6.019 c 5.094 -2.584 11.336 -0.543 13.92 4.548 c 0.125 0.246 0.026 0.548 -0.22 0.673 l -17.576 8.92 C 71.79 74.977 71.713 74.995 71.635 74.995 z M 80.414 60.676 c -1.451 0 -2.893 0.342 -4.224 1.018 c -2.229 1.13 -3.884 3.062 -4.66 5.437 c -0.724 2.216 -0.603 4.571 0.336 6.688 l 16.661 -8.456 c -1.153 -2.006 -2.982 -3.494 -5.199 -4.219 C 82.373 60.83 81.392 60.676 80.414 60.676 z" style="stroke: none; stroke-width: 1; stroke-dasharray: none; stroke-linecap: butt; stroke-linejoin: miter; stroke-miterlimit: 10; fill: rgb(0,0,0); fill-rule: nonzero; opacity: 1;" transform=" matrix(1 0 0 1 0 0) " stroke-linecap="round" />
	<path d="M 70.587 71.174 H 36.192 c -0.872 0 -1.684 -0.347 -2.287 -0.978 c -0.604 -0.631 -0.916 -1.46 -0.877 -2.334 c 0.31 -7.046 2.346 -9.285 5.644 -12.356 c 0.093 -0.086 0.214 -0.134 0.341 -0.134 h 14.213 c 0.135 0 0.265 0.055 0.358 0.151 c 0.095 0.097 0.146 0.228 0.142 0.363 c -0.095 3.286 0.058 5.384 0.492 6.801 c 0.435 1.416 1.804 2.405 3.33 2.405 h 6.023 c 1.612 0 2.925 -1.312 2.925 -2.924 V 40.615 c 0 -2.095 1.704 -3.8 3.8 -3.8 h 4.962 c 2.096 0 3.8 1.705 3.8 3.8 s -1.704 3.8 -3.8 3.8 h -2.225 c -0.315 0 -0.598 0.15 -0.774 0.412 c -0.175 0.258 -0.209 0.571 -0.094 0.858 c 0.492 1.225 1.452 2.366 2.469 3.574 c 2.083 2.476 4.675 5.557 4.675 11.052 c 0 0.276 -0.224 0.5 -0.5 0.5 s -0.5 -0.224 -0.5 -0.5 c 0 -5.13 -2.358 -7.934 -4.439 -10.408 c -1.07 -1.271 -2.08 -2.472 -2.632 -3.845 c -0.237 -0.592 -0.166 -1.261 0.192 -1.791 c 0.361 -0.534 0.96 -0.852 1.604 -0.852 h 2.225 c 1.544 0 2.8 -1.256 2.8 -2.8 s -1.256 -2.8 -2.8 -2.8 h -4.962 c -1.544 0 -2.8 1.256 -2.8 2.8 v 21.554 c 0 2.164 -1.761 3.924 -3.925 3.924 h -6.023 c -1.962 0 -3.724 -1.28 -4.286 -3.112 c -0.45 -1.468 -0.618 -3.462 -0.549 -6.608 H 39.209 c -3.116 2.912 -4.893 4.965 -5.182 11.534 c -0.026 0.599 0.187 1.166 0.601 1.599 c 0.413 0.432 0.968 0.669 1.564 0.669 h 34.395 c 0.276 0 0.5 0.224 0.5 0.5 S 70.863 71.174 70.587 71.174 z" style="stroke: none; stroke-width: 1; stroke-dasharray: none; stroke-linecap: butt; stroke-linejoin: miter; stroke-miterlimit: 10; fill: rgb(0,0,0); fill-rule: nonzero; opacity: 1;" transform=" matrix(1 0 0 1 0 0) " stroke-linecap="round" />
	<path d="M 45.009 76.507 c -2.298 0 -4.168 -1.87 -4.168 -4.168 c 0 -0.667 0.153 -1.305 0.454 -1.895 l 0.891 0.455 c -0.229 0.447 -0.345 0.932 -0.345 1.439 c 0 1.747 1.421 3.168 3.168 3.168 c 1.748 0 3.168 -1.421 3.168 -3.168 c 0 -0.509 -0.116 -0.992 -0.345 -1.438 l 0.891 -0.457 c 0.297 0.58 0.454 1.235 0.454 1.895 C 49.178 74.637 47.308 76.507 45.009 76.507 z" style="stroke: none; stroke-width: 1; stroke-dasharray: none; stroke-linecap: butt; stroke-linejoin: miter; stroke-miterlimit: 10; fill: rgb(0,0,0); fill-rule: nonzero; opacity: 1;" transform=" matrix(1 0 0 1 0 0) " stroke-linecap="round" />
	<path d="M 0.5 71.173 c -0.276 0 -0.5 -0.224 -0.5 -0.5 s 0.224 -0.5 0.5 -0.5 l 27.768 -0.002 c 0.276 0 0.5 0.224 0.5 0.5 s -0.224 0.5 -0.5 0.5 L 0.5 71.173 z" style="stroke: none; stroke-width: 1; stroke-dasharray: none; stroke-linecap: butt; stroke-linejoin: miter; stroke-miterlimit: 10; fill: rgb(0,0,0); fill-rule: nonzero; opacity: 1;" transform=" matrix(1 0 0 1 0 0) " stroke-linecap="round" />
	<path d="M 29.808 60.863 H 0.5 c -0.276 0 -0.5 -0.224 -0.5 -0.5 s 0.224 -0.5 0.5 -0.5 h 29.308 c 0.276 0 0.5 0.224 0.5 0.5 S 30.084 60.863 29.808 60.863 z" style="stroke: none; stroke-width: 1; stroke-dasharray: none; stroke-linecap: butt; stroke-linejoin: miter; stroke-miterlimit: 10; fill: rgb(0,0,0); fill-rule: nonzero; opacity: 1;" transform=" matrix(1 0 0 1 0 0) " stroke-linecap="round" />
	<path d="M 20.037 50.554 H 0.5 c -0.276 0 -0.5 -0.224 -0.5 -0.5 s 0.224 -0.5 0.5 -0.5 h 19.537 c 0.276 0 0.5 0.224 0.5 0.5 S 20.313 50.554 20.037 50.554 z" style="stroke: none; stroke-width: 1; stroke-dasharray: none; stroke-linecap: butt; stroke-linejoin: miter; stroke-miterlimit: 10; fill: rgb(0,0,0); fill-rule: nonzero; opacity: 1;" transform=" matrix(1 0 0 1 0 0) " stroke-linecap="round" />
	<path d="M 18.459 40.245 H 0.5 c -0.276 0 -0.5 -0.224 -0.5 -0.5 s 0.224 -0.5 0.5 -0.5 h 17.959 c 0.276 0 0.5 0.224 0.5 0.5 S 18.736 40.245 18.459 40.245 z" style="stroke: none; stroke-width: 1; stroke-dasharray: none; stroke-linecap: butt; stroke-linejoin: miter; stroke-miterlimit: 10; fill: rgb(0,0,0); fill-rule: nonzero; opacity: 1;" transform=" matrix(1 0 0 1 0 0) " stroke-linecap="round" />
</g>
</svg>